<svg width="48" height="48" viewBox="0 0 48 48" fill="none" xmlns="http://www.w3.org/2000/svg">
<path d="M15.6722 9.6192C16.7412 7.75703 18.4037 6.30703 20.3939 5.50096C22.3841 4.69489 24.587 4.57929 26.6506 5.17265C28.7142 5.76601 30.5193 7.03407 31.7774 8.77412C33.0355 10.5142 33.6739 12.6258 33.5905 14.7714C33.5072 16.917 32.707 18.9727 31.3178 20.6099C29.9285 22.2472 28.0305 23.3714 25.9271 23.803C23.8237 24.2345 21.6364 23.9484 19.7147 22.9904C17.793 22.0324 16.248 20.4579 15.3266 18.5184C14.711 18.9687 13.9677 19.2109 13.205 19.2096H12.005V19.8216C12.005 20.2776 12.1778 20.6928 12.461 21.0072C12.703 20.7336 13.0226 20.5403 13.3772 20.4529C13.7319 20.3655 14.1047 20.3882 14.4462 20.5179C14.7876 20.6477 15.0814 20.8785 15.2884 21.1794C15.4954 21.4803 15.6058 21.8371 15.605 22.2024C15.6048 22.4532 15.5522 22.7013 15.4506 22.9306C15.3489 23.1599 15.2004 23.3655 15.0147 23.534C14.8289 23.7026 14.61 23.8305 14.3719 23.9095C14.1338 23.9885 13.8819 24.0169 13.6322 23.9928C12.5513 23.9549 11.5273 23.4988 10.776 22.7207C10.0248 21.9426 9.60495 20.9032 9.605 19.8216V10.8168C9.605 10.4985 9.73142 10.1933 9.95647 9.96827C10.1815 9.74323 10.4867 9.6168 10.805 9.6168H15.605L15.6722 9.6192ZM12.005 16.8096H13.205C13.5233 16.8096 13.8285 16.6832 14.0535 16.4581C14.2786 16.2331 14.405 15.9279 14.405 15.6096V14.7216C14.3979 14.5073 14.3979 14.2927 14.405 14.0784V12.0168H12.005V16.8096ZM7.2002 31.2C7.2002 28.5288 9.3674 26.4 12.0218 26.4H36.0002C37.2732 26.4 38.4941 26.9057 39.3943 27.8059C40.2945 28.7061 40.8002 29.927 40.8002 31.2C40.8002 35.2584 38.801 38.3184 35.6762 40.3128C32.5994 42.2736 28.4522 43.2 24.0002 43.2C19.5482 43.2 15.401 42.2736 12.3242 40.3128C9.1994 38.3208 7.2002 35.256 7.2002 31.2Z" fill="#EBD300"/>
</svg>
