<svg width="48" height="48" viewBox="0 0 48 48" fill="none" xmlns="http://www.w3.org/2000/svg">
<path d="M34 22H38C39.0609 22 40.0783 22.4214 40.8284 23.1716C41.5786 23.9217 42 24.9391 42 26V30C42 30.5304 41.7893 31.0391 41.4142 31.4142C41.0391 31.7893 40.5304 32 40 32H37M34 22H21M34 22L29.166 13.942C28.8106 13.3497 28.3079 12.8595 27.7068 12.5192C27.1057 12.1789 26.4267 12 25.736 12H21M37 32C37 33.0609 36.5786 34.0783 35.8284 34.8284C35.0783 35.5786 34.0609 36 33 36C31.9391 36 30.9217 35.5786 30.1716 34.8284C29.4214 34.0783 29 33.0609 29 32M37 32C37 30.9391 36.5786 29.9217 35.8284 29.1716C35.0783 28.4214 34.0609 28 33 28C31.9391 28 30.9217 28.4214 30.1716 29.1716C29.4214 29.9217 29 30.9391 29 32M21 22V12M21 22H10M21 12H15.28C14.3549 11.9996 13.4584 12.3199 12.7429 12.9063C12.0274 13.4927 11.5373 14.3089 11.356 15.216L10 22M10 22C8.93913 22 7.92172 22.4214 7.17157 23.1716C6.42143 23.9217 6 24.9391 6 26V30C6 30.5304 6.21071 31.0391 6.58579 31.4142C6.96086 31.7893 7.46957 32 8 32H11M11 32C11 33.0609 11.4214 34.0783 12.1716 34.8284C12.9217 35.5786 13.9391 36 15 36C16.0609 36 17.0783 35.5786 17.8284 34.8284C18.5786 34.0783 19 33.0609 19 32M11 32C11 30.9391 11.4214 29.9217 12.1716 29.1716C12.9217 28.4214 13.9391 28 15 28C16.0609 28 17.0783 28.4214 17.8284 29.1716C18.5786 29.9217 19 30.9391 19 32M19 32H29" stroke="#EBD300" stroke-width="2" stroke-linecap="round" stroke-linejoin="round"/>
</svg>
