<svg width="48" height="48" viewBox="0 0 48 48" fill="none" xmlns="http://www.w3.org/2000/svg">
<path d="M20 10.392C23 5.19599 30.196 4.73199 35.392 7.73199C40.588 10.732 43.784 17.196 40.784 22.392L33.856 18.392L30.392 16.392L26.928 14.392L20 10.392Z" fill="#EBD300"/>
<path d="M35.392 7.73199C30.196 4.73199 23 5.19599 20 10.392L26.928 14.392M35.392 7.73199C40.588 10.732 43.784 17.196 40.784 22.392L30.392 16.392M35.392 7.73199L36.392 5.99999M35.392 7.73199C31.75 8.70799 29.428 10.062 26.928 14.392M35.392 7.73199C36.368 11.374 36.356 14.062 33.856 18.392M26.928 14.392L30.392 16.392M30.392 16.392L24.392 26.784M6 42L7.76 39.888C8.14658 39.4236 8.6333 39.0528 9.18365 38.8033C9.73401 38.5539 10.3337 38.4323 10.9377 38.4477C11.5418 38.4631 12.1345 38.615 12.6714 38.8922C13.2084 39.1694 13.6756 39.5645 14.038 40.048C14.3954 40.5249 14.8547 40.916 15.3825 41.1926C15.9103 41.4693 16.4932 41.6247 17.0887 41.6473C17.6842 41.6699 18.2773 41.5592 18.8245 41.3234C19.3718 41.0875 19.8595 40.7324 20.252 40.284L20.632 39.848C21.0517 39.3678 21.5694 38.9829 22.1501 38.7192C22.7308 38.4556 23.3612 38.3191 23.999 38.3191C24.6368 38.3191 25.2672 38.4556 25.8479 38.7192C26.4287 38.9829 26.9463 39.3678 27.366 39.848L27.748 40.284C29.424 42.198 32.436 42.084 33.962 40.05C34.3244 39.5661 34.7917 39.1707 35.3288 38.8933C35.8659 38.6159 36.4589 38.4638 37.0632 38.4484C37.6676 38.433 38.2675 38.5547 38.8181 38.8044C39.3686 39.0541 39.8554 39.4252 40.242 39.89L42 42M13.416 32C16.3362 29.4173 20.1016 27.9942 24 28C27.8984 27.9942 31.6638 29.4173 34.584 32" stroke="#EBD300" stroke-width="2" stroke-linecap="round" stroke-linejoin="round"/>
</svg>
