<svg width="32" height="32" viewBox="0 0 32 32" fill="none" xmlns="http://www.w3.org/2000/svg">
<path fill-rule="evenodd" clip-rule="evenodd" d="M21.4131 14.5867C21.7877 14.9617 21.998 15.47 21.998 16C21.998 16.53 21.7877 17.0383 21.4131 17.4133L13.8718 24.9573C13.4966 25.3324 12.9878 25.543 12.4573 25.5428C12.1947 25.5428 11.9346 25.491 11.6919 25.3904C11.4493 25.2898 11.2288 25.1424 11.0431 24.9567C10.8574 24.7709 10.7102 24.5504 10.6097 24.3077C10.5092 24.065 10.4576 23.8049 10.4576 23.5422C10.4577 23.2795 10.5095 23.0195 10.6101 22.7768C10.7106 22.5342 10.858 22.3137 11.0438 22.128L17.1718 16L11.0438 9.87201C10.8527 9.6876 10.7002 9.46698 10.5953 9.22303C10.4904 8.97907 10.4351 8.71666 10.4326 8.4511C10.4302 8.18554 10.4807 7.92216 10.5811 7.67632C10.6816 7.43048 10.83 7.20711 11.0177 7.01924C11.2054 6.83137 11.4286 6.68275 11.6744 6.58208C11.9201 6.4814 12.1834 6.43067 12.449 6.43285C12.7145 6.43503 12.977 6.49008 13.2211 6.59478C13.4651 6.69948 13.6859 6.85174 13.8705 7.04267L21.4158 14.5867H21.4131Z" fill="black"/>
</svg>
