<svg width="58" height="58" viewBox="0 0 58 58" fill="none" xmlns="http://www.w3.org/2000/svg">
<g clip-path="url(#clip0_24_110)">
<path fill-rule="evenodd" clip-rule="evenodd" d="M19.1886 31.5617C18.5097 30.882 18.1284 29.9606 18.1284 29C18.1284 28.0394 18.5097 27.118 19.1886 26.4383L32.8572 12.7648C33.5373 12.0851 34.4595 11.7034 35.421 11.7036C35.897 11.7037 36.3684 11.7976 36.8082 11.9799C37.248 12.1622 37.6476 12.4293 37.9842 12.766C38.3208 13.1028 38.5877 13.5025 38.7698 13.9424C38.9519 14.3822 39.0455 14.8537 39.0454 15.3298C39.0453 15.8059 38.9514 16.2773 38.7691 16.7171C38.5868 17.1569 38.3197 17.5564 37.983 17.893L26.876 29L37.983 40.107C38.3294 40.4412 38.6057 40.8411 38.7959 41.2833C38.9861 41.7255 39.0863 42.2011 39.0907 42.6824C39.0951 43.1637 39.0036 43.6411 38.8216 44.0867C38.6395 44.5323 38.3705 44.9371 38.0303 45.2776C37.6901 45.6182 37.2855 45.8875 36.8401 46.07C36.3947 46.2525 35.9174 46.3444 35.4361 46.3405C34.9548 46.3365 34.479 46.2367 34.0367 46.047C33.5943 45.8572 33.1942 45.5812 32.8596 45.2352L19.1837 31.5617H19.1886Z" fill="#EBD300"/>
</g>
<defs>
<clipPath id="clip0_24_110">
<rect width="58" height="58" fill="white"/>
</clipPath>
</defs>
</svg>
