<svg width="69" height="69" viewBox="0 0 69 69" fill="none" xmlns="http://www.w3.org/2000/svg">
<path d="M7.50101 18.0147C8.02713 17.3075 8.72001 16.3501 9.27488 15.6659C10.9366 13.7799 11.1523 13.5326 12.6645 12.1383C13.113 11.7703 13.6449 11.3275 14.1653 10.9106C10.3271 14.1594 9.83838 17.756 13.3603 19.9784C13.3545 19.9784 13.3545 19.9784 13.3545 19.9841C18.2794 22.9511 29.0721 22.31 37.5879 18.5093C45.8363 14.8293 48.8809 9.56513 44.8099 6.43713C41.2363 5.76725 36.9755 5.68962 32.4675 6.29337L31.9989 5.52L32.387 4.23775C35.0378 3.99913 37.5563 4.05662 39.7298 4.4275C40.2559 4.51662 40.9488 4.669 41.4663 4.77825C42.4668 5.02262 43.0101 5.16925 43.6628 5.37913C44.3298 5.5775 44.899 5.77588 45.8909 6.14388C46.8626 6.52625 47.2824 6.69875 48.0615 7.08687C48.934 7.48496 49.7818 7.93523 50.6001 8.43525C57.0861 12.5149 53.0525 19.9582 41.6071 25.0585C30.1934 30.1415 15.6488 30.9407 9.13113 26.91C9.12826 26.9042 9.11963 26.8985 9.10238 26.8927H9.11388C5.55463 24.6388 5.18088 21.367 7.50101 18.0147ZM37.1969 46.5348L37.1049 41.952L33.8475 38.3295C23.0864 40.7675 12.5093 40.2443 6.62701 36.7799C6.60688 36.7569 6.55801 36.7339 6.53788 36.7109C3.20863 34.661 2.38638 32.016 2.63651 29.141C1.85738 33.3471 1.79413 34.8651 1.90626 38.4646C2.04426 40.7186 3.34663 42.7973 5.96576 44.436L5.98588 44.459C12.2563 48.3575 25.3203 49.2028 37.1969 46.5348ZM50.7813 51.7816C35.5926 57.8737 16.5831 58.2331 8.32613 52.5953C9.21784 54.7744 10.4311 56.8076 11.9256 58.627C19.5041 63.802 36.9525 63.4714 50.8876 57.8795C59.044 54.6106 64.1903 50.2607 65.5415 46.184L65.921 44.9564C66.8209 41.8456 66.9905 39.2552 67.1343 36.9495C66.9704 41.9549 61.0738 47.6474 50.7813 51.7816ZM17.253 63.5145C17.7303 63.9687 19.231 65.8116 26.8354 67.8471C28.891 68.3014 34.066 69.759 43.6254 67.6401L43.6829 66.769L42.9268 65.5845C34.0574 67.6833 24.2048 66.9818 17.253 63.5145ZM39.2008 27.2636L47.2766 33.3845C47.2766 33.3845 49.0045 34.6294 47.3744 35.5034C45.75 36.3688 41.5784 38.4876 41.5784 38.4876L37.4585 36.9495L35.3914 37.8695L39.0369 41.0349L39.0656 45.9598L41.2075 45.0081L42.6278 40.848C42.6278 40.848 46.9891 39.169 48.7199 38.5365C50.4593 37.9184 50.2264 40.0344 50.2264 40.0344L49.3696 50.1285L52.2159 48.8635L56.9021 35.2446C56.9021 35.2446 59.3861 34.0371 61.1341 32.9762C62.8793 31.9154 63.4773 30.1559 63.4773 30.1559C63.4773 30.1559 61.7753 29.4228 59.8145 30.0121C57.8538 30.5958 55.2979 31.6365 55.2979 31.6365L42.0384 26.0044L39.2008 27.2636ZM22.1146 7.89762L27.5973 12.2647L29.0951 12.0405L26.1109 8.12187C26.1109 8.12187 25.4611 7.31113 26.3351 7.1185C27.2149 6.923 29.4401 6.46875 29.4401 6.46875L31.1134 7.80562L32.2404 7.63888L30.9639 5.60913L31.6366 3.358L30.547 3.51613L29.2561 5.22963C29.2561 5.22963 26.9906 5.44238 26.0994 5.51713C25.2024 5.58612 25.5876 4.623 25.5876 4.623L27.3069 0L25.8004 0.221375L21.8329 5.99725C21.8329 5.99725 20.5104 6.23875 19.553 6.51188C18.5928 6.78213 18.0868 7.52388 18.0868 7.52388C18.0868 7.52388 18.7911 8.09313 19.783 8.073C20.7835 8.05288 22.1146 7.89762 22.1146 7.89762ZM49.2115 64.0119L45.6638 62.1575L44.8473 62.4421L46.9489 64.3224C46.9489 64.3224 47.3974 64.7048 46.9259 64.9089C46.4544 65.1101 45.2526 65.6046 45.2526 65.6046L44.2608 65.1619L43.6714 65.3746L44.4965 66.2544L44.416 67.5395L45.0313 67.3268L45.4913 66.2831C45.4913 66.2831 46.739 65.9122 47.2364 65.78C47.7309 65.6449 47.6188 66.2256 47.6188 66.2256L47.1501 69L47.9695 68.7154L49.5766 65.0469C49.5766 65.0469 50.2868 64.768 50.7956 64.5121C51.3045 64.2562 51.5058 63.7848 51.5058 63.7848C51.5058 63.7848 51.0544 63.5375 50.4966 63.6611C49.936 63.779 49.2115 64.0119 49.2115 64.0119Z" fill="#F8F8F8"/>
</svg>
