<svg width="48" height="48" viewBox="0 0 48 48" fill="none" xmlns="http://www.w3.org/2000/svg">
<path d="M42.8572 33.4286V31.7143C42.8572 26.7131 40.8705 21.9167 37.3341 18.3803C33.7977 14.8439 29.0013 12.8571 24.0001 12.8571M24.0001 12.8571C18.9989 12.8571 14.2025 14.8439 10.6661 18.3803C7.12966 21.9167 5.14293 26.7131 5.14293 31.7143V33.4286M24.0001 12.8571V6M46.2858 33.4286H1.71436L2.8115 37.0971C3.2331 38.5151 4.10193 39.7587 5.28833 40.6423C6.47473 41.5259 7.91506 42.0022 9.39436 42H38.6058C40.0851 42.0022 41.5254 41.5259 42.7118 40.6423C43.8982 39.7587 44.7671 38.5151 45.1887 37.0971L46.2858 33.4286Z" stroke="#EBD300" stroke-width="3" stroke-linecap="round" stroke-linejoin="round"/>
</svg>
